<svg width="120" height="120" viewBox="0 0 120 120" fill="none" xmlns="http://www.w3.org/2000/svg">
<path fill-rule="evenodd" clip-rule="evenodd" d="M41.3812 32.7599C41.3812 35.7862 39.0281 38.233 36.1293 38.233C33.2231 38.233 30.8774 35.7862 30.8774 32.7599C30.8774 29.7374 33.2231 27.2793 36.1293 27.2793C39.0299 27.2793 41.3812 29.7355 41.3812 32.7599Z" fill="#C8832E"/>
<path fill-rule="evenodd" clip-rule="evenodd" d="M28.7869 54.7687C28.7869 54.7687 41.1 47.1337 34.815 31.6968C34.815 31.6968 57.0956 63.778 63.3862 50.128C69.675 36.4762 61.5506 66.7874 61.0275 67.603C60.5044 68.4262 50.0194 76.618 50.0194 76.618H33.5081L28.7869 54.7687Z" fill="#C8832E"/>
<path d="M83.8781 38.2329C86.7817 38.2329 89.1356 35.7825 89.1356 32.7597C89.1356 29.737 86.7817 27.2866 83.8781 27.2866C80.9745 27.2866 78.6206 29.737 78.6206 32.7597C78.6206 35.7825 80.9745 38.2329 83.8781 38.2329Z" fill="#C8832E"/>
<path fill-rule="evenodd" clip-rule="evenodd" d="M91.2132 54.7687C91.2132 54.7687 78.8926 47.1337 85.1851 31.6968C85.1851 31.6968 62.9026 63.778 56.6101 50.128C50.3232 36.4762 58.4495 66.7874 58.9782 67.603C59.492 68.4262 69.9788 76.618 69.9788 76.618H86.4976L91.2132 54.7687Z" fill="#C8832E"/>
<path fill-rule="evenodd" clip-rule="evenodd" d="M112.631 27.3113C108.608 27.3113 105.349 30.8869 105.349 35.3044C105.349 36.4819 105.593 37.5994 106.011 38.6044C94.742 45.0806 84.2701 55.0819 84.2701 55.0819C74.747 66.075 67.0351 48.1556 62.8295 34.4194C67.952 32.9738 71.7489 27.8794 71.7489 21.8006C71.7489 14.595 66.4314 8.75439 59.8651 8.75439C53.3007 8.75439 47.9814 14.595 47.9814 21.8006C47.9814 27.975 51.8907 33.1256 57.1426 34.4906C52.9276 48.2288 45.2289 66.0713 35.7301 55.0913C35.7301 55.0913 25.2582 45.09 13.9782 38.6138C14.4147 37.5682 14.6409 36.4468 14.6439 35.3138C14.6439 30.8963 11.3814 27.3206 7.36136 27.3206C3.34136 27.3206 0.0788574 30.8963 0.0788574 35.3138C0.0788574 39.7313 3.34136 43.3106 7.36136 43.3106C8.71136 43.3106 9.95448 42.8813 11.042 42.1781C15.2495 50.9513 21.1895 66.7219 18.0882 81.1856C18.0882 81.1856 22.6539 99.4763 59.9964 98.8594C97.337 99.4763 101.897 81.1856 101.897 81.1856C98.7995 66.7275 104.738 50.9606 108.949 42.1781C110.036 42.8813 111.279 43.3106 112.629 43.3106C116.651 43.3106 119.914 39.7313 119.914 35.3138C119.914 30.8963 116.653 27.3188 112.631 27.3188" fill="#F79420"/>
<path fill-rule="evenodd" clip-rule="evenodd" d="M59.9999 103.041C30.163 103.534 21.2587 91.9615 18.8868 87.2871C18.7905 89.3969 18.5247 91.4956 18.0918 93.5627C18.0918 93.5627 22.6574 111.85 59.9999 111.24C97.3405 111.85 101.901 93.5627 101.901 93.5627C101.469 91.4955 101.204 89.3968 101.109 87.2871C98.7374 91.9615 89.8405 103.534 59.9999 103.041Z" fill="#C8832E"/>
<path fill-rule="evenodd" clip-rule="evenodd" d="M58.3125 98.6514C63.6713 71.717 65.8313 44.2201 57.8044 17.4639C56.8894 14.4189 56.6494 11.5801 56.9138 8.96826C51.7763 10.4101 47.9794 15.5045 47.9794 21.5945C47.9794 27.7689 51.8888 32.9383 57.1407 34.2808C52.9257 48.0226 45.2269 65.8689 35.7282 54.8851C35.7282 54.8851 25.2563 44.8839 13.9763 38.4058C14.413 37.3596 14.6392 36.2376 14.6419 35.1039C14.6419 30.6939 11.3794 27.1145 7.35941 27.1145C3.3394 27.1145 0.0769043 30.6939 0.0769043 35.1039C0.0769043 39.5251 3.3394 43.1045 7.35941 43.1045C8.7094 43.1045 9.95253 42.6714 11.04 41.972C15.2475 50.7395 21.1875 66.5158 18.0863 80.9739C18.0863 80.9739 22.5394 98.687 58.3125 98.657" fill="#F19D43"/>
<path d="M59.9999 75.4873L63.1724 81.4123L70.2543 82.3573L65.1224 86.9623L66.3374 93.4704L59.9999 90.3936L53.6699 93.4704L54.8811 86.9623L49.7549 82.3573L56.8311 81.4123L59.9999 75.4873Z" fill="white"/>
<path d="M59.8836 78.6036C59.8433 77.6013 59.9036 76.5975 60.0636 75.6073L60.0055 75.4873L56.8349 81.4086L49.7549 82.3573L54.8736 86.9586L53.668 93.4704L60.0055 90.3992L66.3336 93.4704L65.8236 90.7067C62.2105 87.5586 60.0618 83.1879 59.8836 78.6036ZM84.7686 78.7029L86.7186 82.3273L91.0536 82.9123L87.9205 85.7304L88.6499 89.7261L84.7686 87.8511L80.8874 89.7261L81.6299 85.7304L78.4911 82.9123L82.8374 82.3273L84.7686 78.7029Z" fill="white"/>
<path d="M84.6937 80.6099C84.6716 79.9958 84.7099 79.3809 84.8081 78.7743L84.7706 78.7012L82.83 82.3274L78.4894 82.9106L81.6281 85.7305L80.8912 89.7262L84.7706 87.8512L88.65 89.7262L88.3387 88.0312C86.1244 86.098 84.8062 83.413 84.6937 80.6099ZM35.07 78.703L37.0069 82.3274L41.3437 82.9124L38.2069 85.7305L38.9494 89.7262L35.07 87.8512L31.1887 89.7262L31.9312 85.7305L28.7869 82.9124L33.1237 82.3274L35.07 78.703Z" fill="white"/>
<path d="M34.9912 80.6099C34.9605 79.9955 35.0001 79.3797 35.1094 78.7743L35.07 78.7012L33.1237 82.3274L28.7869 82.9106L31.9237 85.7305L31.1869 89.7262L35.0681 87.8512L38.9475 89.7262L38.6325 88.0312C36.4181 86.098 35.1019 83.413 34.9912 80.6099Z" fill="white"/>
</svg>
