<svg width="1000" height="200" viewBox="0 0 1000 200" fill="none" xmlns="http://www.w3.org/2000/svg">
<path d="M343.75 181.25H78.125C73.981 181.25 70.0067 180.921 67.0765 180.335C64.1462 179.749 62.5 178.954 62.5 178.125V62.5C62.5 60.8424 65.7924 59.2527 71.6529 58.0806C77.5134 56.9085 85.462 56.25 93.75 56.25H312.5C320.788 56.25 328.737 56.9085 334.597 58.0806C340.458 59.2527 343.75 60.8424 343.75 62.5V181.25ZM343.75 181.25V25C343.75 23.3424 347.042 21.7527 352.903 20.5806C358.763 19.4085 366.712 18.75 375 18.75H625C633.288 18.75 641.237 19.4085 647.097 20.5806C652.958 21.7527 656.25 23.3424 656.25 25V181.25M343.75 181.25H656.25M656.25 181.25V87.5C656.25 85.8424 659.542 84.2527 665.403 83.0806C671.263 81.9085 679.212 81.25 687.5 81.25H906.25C914.538 81.25 922.487 81.9085 928.347 83.0806C934.208 84.2527 937.5 85.8424 937.5 87.5V178.125C937.5 178.954 935.854 179.749 932.924 180.335C929.993 180.921 926.019 181.25 921.875 181.25H656.25Z" stroke="black" stroke-linecap="round" stroke-linejoin="round"/>
<path d="M487.777 80.1016C487.033 78.6979 487.534 77.6094 489.281 76.8359C490.943 76.0911 492.676 75.0456 494.48 73.6992C496.285 72.3529 497.76 70.9635 498.906 69.5312C500.195 67.9271 501.427 67.125 502.602 67.125H509.434C511.152 67.125 512.012 67.9844 512.012 69.7031V126.422C512.012 128.141 511.152 129 509.434 129H502.559C500.84 129 499.98 128.141 499.98 126.422V85.5586C499.98 84.4128 500.038 83.2669 500.152 82.1211H499.98C499.092 83.2383 498.118 84.1979 497.059 85C495.999 85.8021 494.924 86.4323 493.836 86.8906C492.49 87.4635 491.473 87.0911 490.785 85.7734L487.777 80.1016Z" fill="black"/>
<path d="M779.715 157.617C778.598 156.672 778.512 155.326 779.457 153.578L781.434 149.969C782.379 148.221 783.911 148.092 786.031 149.582C787.807 150.842 789.812 151.874 792.047 152.676C794.281 153.449 796.773 153.836 799.523 153.836C803.305 153.836 806.012 152.819 807.645 150.785C809.277 148.723 810.094 146.417 810.094 143.867C810.094 141.26 809.12 138.926 807.172 136.863C805.253 134.772 802.531 133.727 799.008 133.727H795.699C793.837 133.727 792.906 132.967 792.906 131.449V126.723C792.906 125.147 793.837 124.359 795.699 124.359H798.277C800.913 124.359 803.233 123.543 805.238 121.91C807.272 120.277 808.289 118.229 808.289 115.766C808.289 113.846 807.616 112.257 806.27 110.996C804.952 109.707 802.789 109.062 799.781 109.062C796.945 109.062 794.496 109.478 792.434 110.309C790.371 111.139 788.738 112.142 787.535 113.316C785.816 115.007 784.341 114.935 783.109 113.102L780.617 109.449C779.672 108.074 779.958 106.671 781.477 105.238C783.539 103.262 786.203 101.801 789.469 100.855C792.734 99.9102 795.928 99.4375 799.051 99.4375C806.413 99.4375 811.884 100.913 815.465 103.863C819.046 106.785 820.836 110.366 820.836 114.605C820.836 117.757 819.604 120.635 817.141 123.242C814.677 125.82 812.07 127.596 809.32 128.57V128.742C812.586 129.544 815.68 131.306 818.602 134.027C821.523 136.72 822.984 140.072 822.984 144.082C822.984 150.355 821.008 155.154 817.055 158.477C813.102 161.799 807.072 163.461 798.965 163.461C795.556 163.461 792.018 162.945 788.352 161.914C784.714 160.854 781.835 159.422 779.715 157.617Z" fill="black"/>
<path d="M184.004 148C181.855 148 180.781 147.069 180.781 145.207V143.145C180.781 141.655 181.469 140.18 182.844 138.719L195.691 125.184C199.559 121.087 203.096 117.449 206.305 114.27C209.513 111.061 211.117 107.824 211.117 104.559C211.117 101.293 210.301 98.901 208.668 97.3828C207.064 95.8359 205.016 95.0625 202.523 95.0625C198.57 95.0625 195.82 95.9792 194.273 97.8125C192.727 99.6458 191.609 101.608 190.922 103.699C190.263 105.733 189.06 106.464 187.312 105.891L182.973 104.43C181.569 103.943 181.168 102.596 181.77 100.391C182.887 96.2943 185.164 92.7852 188.602 89.8633C192.039 86.9128 197.138 85.4375 203.898 85.4375C210.945 85.4375 216.059 87.2565 219.238 90.8945C222.418 94.5039 224.008 98.4284 224.008 102.668C224.008 108.225 221.688 113.109 217.047 117.32C212.406 121.503 208.195 125.585 204.414 129.566L197.109 137.258V137.516C198.828 137.401 200.26 137.344 201.406 137.344H221.473C223.621 137.344 224.695 138.275 224.695 140.137V145.207C224.695 147.069 223.621 148 221.473 148H184.004Z" fill="black"/>
</svg>
