<svg id="Layer_1" enable-background="new 0 0 152 152" height="512" viewBox="0 0 152 152" width="512" xmlns="http://www.w3.org/2000/svg"><g id="Icon"><path d="m76 11c-35.9 0-65 29.1-65 65s29.1 65 65 65 65-29.1 65-65-29.1-65-65-65zm0 122.8c-31.9 0-57.8-25.9-57.8-57.8-.1-31.9 25.8-57.8 57.8-57.8 31.9 0 57.8 25.9 57.8 57.8 0 31.9-25.8 57.8-57.8 57.8z"/><path d="m59.5 44.4 41.1-11.1c1.1-.3 2.2.4 2.5 1.4 0 .2.1.3.1.5v61 .2c0 5.7-5.6 10.3-12.3 10.3s-12.1-4.6-12.1-10.3 5.4-10.4 12.1-10.4c2.7 0 5.4.8 7.6 2.3v-36.1l-35.7 9.6.3 39.6.1 2.9c.2 5.7-5.4 10.3-12.1 10.3s-12-4.6-12-10.3 5.2-10.2 11.9-10.2c2.5 0 4.9.6 7 1.9v-49.6c0-.9.6-1.7 1.5-2z"/></g></svg>