<svg id="Layer_1" enable-background="new 0 0 100 100" height="100" viewBox="0 0 100 100" width="100" xmlns="http://www.w3.org/2000/svg"><path d="m63.333 11.53v14.502c5.974 3.46 10 9.902 10 17.302 0 11.044-8.955 20-20 20s-20-8.955-20-20c0-7.399 4.028-13.841 10-17.302v-14.502c-13.522 4.248-23.333 16.878-23.333 31.803l-6.504 16.835c-.581 1.738.446 3.164 2.279 3.164h4.225v13.334c0 3.678 2.985 6.666 6.667 6.666h13.333v6.668h33.333v-20.046c8.083-6.08 13.334-15.729 13.334-26.621 0-14.928-9.812-27.555-23.334-31.803z"/><path d="m56.667 30.472v-20.472h-6.667v20.472c-5.741 1.487-10 6.657-10 12.861 0 7.363 5.97 13.333 13.333 13.333s13.334-5.971 13.334-13.333c0-6.204-4.262-11.374-10-12.861z"/></svg>