<svg height="448pt" viewBox="-8 0 448 448" width="448pt" xmlns="http://www.w3.org/2000/svg"><path d="m152 184c0 8.835938-7.164062 16-16 16s-16-7.164062-16-16 7.164062-16 16-16 16 7.164062 16 16zm0 0"/><path d="m168 80h96v16h-96zm0 0"/><path d="m32 432v16h296c13.253906 0 24-10.746094 24-24v-.207031c-6.882812 5.292969-15.316406 8.175781-24 8.207031zm0 0"/><path d="m32 400v16h296c13.253906 0 24-10.746094 24-24v-.207031c-6.882812 5.292969-15.316406 8.175781-24 8.207031zm0 0"/><path d="m264 184c0 8.835938-7.164062 16-16 16s-16-7.164062-16-16 7.164062-16 16-16 16 7.164062 16 16zm0 0"/><path d="m416 280h16v32h-16zm0 0"/><path d="m368 248h32v16h-32zm0 0"/><path d="m304 280h96v32h-96zm0 0"/><path d="m152 328c-1.730469 0-3.414062-.5625-4.800781-1.601562l-29.863281-22.398438h-21.335938v-16h21.335938l29.863281-22.398438c1.386719-1.039062 3.070312-1.601562 4.800781-1.601562h200v-16h-64v-16h64v-208c0-13.253906-10.746094-24-24-24h-296v16h24v16h-24v32h24v16h-24v32h24v16h-24v32h24v16h-24v32h24v16h-24v32h24v16h-24v32h24v16h-24v32h24v16h-24v16h296c13.253906 0 24-10.746094 24-24v-32zm-16-176c5.636719.03125 11.160156 1.570312 16 4.457031v-84.457031c0-4.417969 3.582031-8 8-8h112c4.417969 0 8 3.582031 8 8v112c0 17.671875-14.328125 32-32 32s-32-14.328125-32-32 14.328125-32 32-32c5.636719.03125 11.160156 1.570312 16 4.457031v-44.457031h-96v72c0 17.671875-14.328125 32-32 32s-32-14.328125-32-32 14.328125-32 32-32zm0 0"/><path d="m154.664062 312h133.335938v-32h-133.335938l-21.328124 16zm0 0"/><path d="m0 16h16v16h-16zm0 0"/><path d="m0 64h16v16h-16zm0 0"/><path d="m0 112h16v16h-16zm0 0"/><path d="m0 160h16v16h-16zm0 0"/><path d="m0 208h16v16h-16zm0 0"/><path d="m0 256h16v16h-16zm0 0"/><path d="m0 304h16v16h-16zm0 0"/><path d="m0 352h16v16h-16zm0 0"/></svg>