<?xml version="1.0" encoding="UTF-8"?>
<svg id="_레이어_2" data-name="레이어 2" xmlns="http://www.w3.org/2000/svg" viewBox="0 0 1450.02 510.19">
  <defs>
    <style>
      .cls-1 {
        fill: #463936;
      }

      .cls-2 {
        fill: #a57865;
      }
    </style>
  </defs>
  <g id="_레이어_1-2" data-name="레이어 1">
    <path class="cls-2" d="M1411.82,276.9c4.97,1.51,10.41,2.01,12.89,1.12,5.01-1.79,6.76-12.11,5.75-16.35-1.58-6.67-18.15-11.16-24.92-8.17-3.16,1.4-5.29,13.13-3.38,17.26,1.23,2.67,5.26,4.8,9.66,6.14Z"/>
    <path class="cls-2" d="M1375.28,264.68c4.97,1.51,10.42,2.01,12.89,1.12,5.01-1.79,6.76-12.11,5.75-16.35-1.58-6.67-18.15-11.16-24.92-8.17-3.16,1.4-5.29,13.13-3.38,17.26,1.24,2.67,5.26,4.8,9.66,6.14Z"/>
    <path class="cls-2" d="M1337.55,249.91c4.97,1.51,10.42,2.01,12.89,1.12,5.01-1.79,6.76-12.11,5.75-16.35-1.58-6.67-18.15-11.16-24.92-8.17-3.16,1.4-5.29,13.13-3.38,17.26,1.23,2.67,5.26,4.8,9.66,6.14Z"/>
    <path class="cls-2" d="M1300.45,236.9c4.97,1.51,10.41,2.01,12.89,1.12,5.01-1.79,6.76-12.11,5.75-16.35-1.58-6.67-18.15-11.16-24.92-8.17-3.16,1.4-5.29,13.13-3.38,17.26,1.23,2.67,5.26,4.8,9.66,6.14Z"/>
    <path class="cls-2" d="M1263.83,224.21c4.97,1.51,10.41,2.01,12.89,1.12,5.01-1.79,6.76-12.11,5.75-16.35-1.58-6.67-18.15-11.16-24.92-8.17-3.16,1.4-5.29,13.13-3.38,17.26,1.23,2.67,5.26,4.8,9.66,6.14Z"/>
    <path class="cls-2" d="M1226.96,211.2c4.97,1.51,10.41,2.01,12.89,1.12,5.01-1.79,6.76-12.11,5.75-16.35-1.58-6.67-18.15-11.16-24.92-8.17-3.16,1.4-5.29,13.13-3.38,17.26,1.23,2.67,5.26,4.8,9.66,6.14Z"/>
    <path class="cls-2" d="M220.13,376.09c-7.55-.25-14.08,5.76-14.41,13.34-.34,7.83,6.06,14.46,13.77,14.56,7.3.1,13.58-5.66,14.11-12.92.57-7.75-5.6-14.73-13.47-14.99Z"/>
    <path class="cls-2" d="M127.11,373.97c-7.55-.25-14.08,5.76-14.41,13.34-.34,7.83,6.06,14.46,13.77,14.56,7.3.1,13.57-5.66,14.11-12.92.57-7.75-5.6-14.73-13.47-14.99Z"/>
    <path class="cls-1" d="M577.47,48.3v194.05h-48.13V107.29l-33.51,135.05h-27.84l-34.4-132.78v132.78h-16.76V48.3h50.65l29.48,117.14,29.36-117.14h51.15Z"/>
    <path class="cls-1" d="M685.32,48.3l47.88,194.05h-50.14l-10.21-42.08h-51.78l-10.96,42.08h-19.53l50.9-194.05h43.84ZM625.98,180.79h42.21l-20.28-86.01-21.92,86.01Z"/>
    <path class="cls-1" d="M746.68,242.35V48.3h74.21c42.08,0,63.12,19,63.12,57.01s-23.39,57.58-70.18,57.58h-17.26v79.47h-49.89ZM796.57,144.97h11.21c18.14,0,27.21-13.55,27.21-40.66,0-25.4-9.07-38.1-27.21-38.1h-11.21v78.76Z"/>
    <path class="cls-1" d="M950.65,48.3v174.57h70.68v19.48h-120.57V48.3h49.89Z"/>
    <path class="cls-2" d="M1445.16,315.55c-8.73-15.68-21.44-23.16-37.07-27.59-13.82-4.61-24.63-8.18-39.5-13.53-36.33-14.07-71.48-26.46-107.99-39.66-11.07-3.91-22.76-8.05-33.71-11.4-6.1-1.87-11.66-4.32-18.32-4.63-10.55-1.31-18.27,6.11-25.44,12.9-3.12,2.78-6.19,5.15-9.4,7.13v3.58c0,11.05-8.95,20-20,20h-121.96c-1.81,0-3.56-.26-5.23-.71-1.67.45-3.42.71-5.23.71h-120.57c-11.05,0-20-8.95-20-20v-6.48l-64.19-2.62v9.1c0,11.05-8.95,20-20,20h-49.89c-2.36,0-4.61-.43-6.72-1.18-2.14.77-4.43,1.18-6.76,1.18h-50.14c-9.23,0-17.26-6.32-19.44-15.29l-4.91-20.25-23.63-.96-5.61,21.54c-2.29,8.81-10.25,14.96-19.35,14.96h-19.53c-2.26,0-4.48-.39-6.57-1.11-2.05.71-4.24,1.11-6.53,1.11h-48.13c-7.02,0-13.19-3.61-16.76-9.08-3.61,5.54-9.85,9.08-16.76,9.08h-27.84c-7.19,0-13.66-3.83-17.2-9.79-3.49,5.86-9.88,9.79-17.2,9.79h-16.76c-11.05,0-20-8.95-20-20v-26.22l-72.91-2.97c-.21-27.06-.89-55.54,4.36-78.46,20.07-3.87,43.7-5.8,68.55-5.25v-51.11c-12.3-2.2-24.1-6.71-35.57-11.84C298.65,38.54,240.22,4.74,169.45.8c-21.29-2.55-44.43,1.13-63.93,8.83C58.96,26.02,26.12,63.53,13.34,111.55c-6.19,19.69-5.97,34.81-7.29,54.13-1.33,23.96-2.45,50.72-3.41,74.15-.64,28.51-3.19,65.09-2.54,95.52.57,22.36.87,46.43,7.54,66.35,10.59,34.83,32.08,63.66,63.05,83.48,35.74,24.04,82.72,28.61,125.8,22.64,45.16-7.52,89.68-26.58,131.4-44.13,38.89-18.01,60.35-27.68,105.06-16.83,56.3,12.48,108.64,56.14,168.42,32.94,29.3-12.56,42.89-43.62,8.25-59.95-18.7-9.88-39.06-14.68-56.73-27.03-20.62-13.21-36.22-35.48-24.72-60.73,4.68-10.52,13.39-16.64,22.93-22.9,2.92-1.9,5.86-3.89,8.77-5.93l582.39,3.12v-.21s3.35.02,3.35.02c1.36.68,3.14,1.13,5.53,1.43,12.32,1.84,22.04,6.4,32.12,15.36,5.97,5.26,11.31,11.35,15.53,17.94,5.48,10.05,13.41,21.13,26.39,21.63,19.81,1.4,48.5-7.36,61.7-11.25,16.56-3.44,40.09-9.09,55.7-10.35,13.16-.75,17.19,7.9,20.95,18.63,7.08,12.55,21.97,22.66,36.59,22.87,34.8,5.47,61.18-37.93,45.04-66.88ZM606.67,443.11c4.71,9.28-8.67,15.18-16.39,14.83-84.82,15.18-165.53-70.84-243.69-29.98-9.24,5.58-22.58,16.52-26.05,4.19-.07-5.21-.14-10.17-.21-14.93-14.63,2.58-35.28-.29-52.16.08-38.96-.95-104.13-2.39-139.44-3.35-45.02,2.38-54.72-51.8-4.18-52.04,52.46-.07,131.9,3.61,181.08,4.86,4.7.27,9.5.73,14.1,1.73-.17-23.33,0-42.59.88-66.54l141.97.76c0,2.64,0,5.22.01,7.65.32,26.67,29.12,21.37,27.69-2.39.03-1.59.07-3.32.1-5.12l26.72.14c-.93,1.18-1.86,2.36-2.78,3.58-53.13,85.03,39.25,110.84,92.35,136.51Z"/>
    <path class="cls-1" d="M1143.29,48.3v19.48h-61.61v58.71h51.78v19.48h-51.78v76.91h72.07v19.48h-121.96V48.3h111.5Z"/>
  </g>
</svg>
