<svg xmlns="http://www.w3.org/2000/svg"
     width="2048" height="2048" viewBox="0 0 512 512"
     preserveAspectRatio="xMidYMid meet">
  <g transform="translate(0,512) scale(0.1,-0.1)" fill="#000000">
    <path d="M1315 4271 c-11 -5 -31 -21 -45 -36 l-25 -27 0 -1648 0 -1648 23 -25
      c34 -36 75 -51 119 -42 32 6 110 80 605 573 l569 566 567 -566 c512 -512 571
      -567 607 -574 51 -9 103 18 127 66 17 33 18 132 18 1648 0 1732 2 1651 -50
      1697 -22 20 -38 20 -1259 22 -680 1 -1245 -2 -1256 -6z m2325 -1628 l0 -1398
      -513 513 -512 512 -55 0 -55 0 -512 -512 -513 -513 0 1398 0 1397 1080 0 1080
      0 0 -1397z"
      fill="#000000"
      stroke="#000000"
      stroke-width="200"
      stroke-linejoin="round"
    />
  </g>
</svg>

