<svg width="20" height="20" viewBox="0 0 20 20" fill="none" xmlns="http://www.w3.org/2000/svg">
<path fill-rule="evenodd" clip-rule="evenodd" d="M18.2128 19.6216L13.7018 15.1096C10.1831 17.883 5.11255 17.4335 2.1366 14.0844C-0.839233 10.7352 -0.689331 5.64697 2.47864 2.47887C5.64673 -0.689232 10.7349 -0.839348 14.0841 2.13647C17.4334 5.11228 17.8831 10.1828 15.1097 13.7016L19.6207 18.2126C19.9116 18.4552 20.0405 18.8414 19.9537 19.2101C19.8668 19.5788 19.5791 19.8668 19.2104 19.9539C18.8418 20.0411 18.4556 19.9124 18.2128 19.6216V19.6216ZM1.99182 8.46363C1.99182 11.0658 3.55005 13.4146 5.94727 14.4261C8.34448 15.4375 11.1143 14.9148 12.978 13.0994C12.9957 13.0776 13.0157 13.0566 13.0358 13.0366C13.0558 13.0166 13.0778 12.9966 13.0997 12.9786C15.135 10.8877 15.5192 7.69328 14.0376 5.17947C12.556 2.66566 9.57532 1.45438 6.76013 2.22212C3.94507 2.98985 1.99194 5.54667 1.99182 8.4646V8.46363Z" fill="#A57865"/>
</svg>
