<svg width="40" height="40" viewBox="0 0 40 40" fill="none" xmlns="http://www.w3.org/2000/svg">
<path fill-rule="evenodd" clip-rule="evenodd" d="M20.0046 16.0528C17.7396 16.0528 15.9035 17.8201 15.9035 20.0002C15.9035 22.1802 17.7396 23.9475 20.0046 23.9475C22.2697 23.9475 24.1058 22.1802 24.1058 20.0002C24.1058 17.8201 22.2697 16.0528 20.0046 16.0528ZM13.1694 20.0002C13.1694 16.3667 16.2296 13.4212 20.0046 13.4212C23.7797 13.4212 26.8399 16.3667 26.8399 20.0002C26.8399 23.6336 23.7797 26.5791 20.0046 26.5791C16.2296 26.5791 13.1694 23.6336 13.1694 20.0002Z" fill="white"/>
<path fill-rule="evenodd" clip-rule="evenodd" d="M34.0022 20.0002L34.3953 20.2196C36.5589 21.4274 37.3066 24.088 36.0707 26.181L33.5622 30.4286C32.3109 32.5475 29.5048 33.2781 27.3144 32.0553L26.9769 31.8669V32.2809C26.9769 34.7032 24.9367 36.6668 22.42 36.6668H17.4456C14.9289 36.6668 12.8888 34.7032 12.8888 32.2809V31.923L12.7267 32.0157C10.5336 33.2698 7.69803 32.547 6.43745 30.4124L3.92927 26.1651C2.70254 24.0878 3.42907 21.4476 5.56329 20.2272L5.96024 20.0002L5.56329 19.7732C3.42907 18.5527 2.70254 15.9125 3.92927 13.8352L6.43745 9.58796C7.69803 7.45336 10.5336 6.73049 12.7267 7.98465L12.8888 8.07735V7.71946C12.8888 5.29715 14.9289 3.3335 17.4456 3.3335H22.42C24.9367 3.3335 26.9769 5.29716 26.9769 7.71946V8.13342L27.3144 7.94502C29.5048 6.7222 32.3109 7.45279 33.5622 9.57169L36.0707 13.8194C37.3066 15.9123 36.5589 18.5729 34.3953 19.7807L34.0022 20.0002ZM31.2712 21.5178C30.0602 20.8417 30.0602 19.1586 31.2712 18.4826L33.0236 17.5043C33.889 17.0212 34.1881 15.9569 33.6937 15.1198L31.1853 10.8721C30.6847 10.0245 29.5623 9.73229 28.6861 10.2214L26.98 11.1739C25.7648 11.8522 24.2427 11.0083 24.2427 9.65626V7.71946C24.2427 6.75054 23.4267 5.96508 22.42 5.96508H17.4456C16.439 5.96508 15.6229 6.75054 15.6229 7.71946V9.61887C15.6229 10.9792 14.0841 11.822 12.8691 11.1271L11.3301 10.247C10.4529 9.74537 9.31865 10.0345 8.81442 10.8884L6.30624 15.1356C5.81555 15.9665 6.10616 17.0226 6.95985 17.5108L8.67551 18.4919C9.86445 19.1718 9.86445 20.8285 8.67551 21.5084L6.95985 22.4895C6.10617 22.9777 5.81555 24.0338 6.30624 24.8647L8.81442 29.112C9.31866 29.9658 10.4529 30.255 11.3301 29.7533L12.8691 28.8732C14.0841 28.1784 15.6229 29.0212 15.6229 30.3815V32.2809C15.6229 33.2498 16.439 34.0353 17.4456 34.0353H22.42C23.4267 34.0353 24.2427 33.2498 24.2427 32.2809V30.3441C24.2427 28.992 25.7648 28.1481 26.98 28.8265L28.6861 29.7789C29.5623 30.268 30.6847 29.9758 31.1853 29.1282L33.6937 24.8806C34.1881 24.0434 33.889 22.9792 33.0236 22.496L31.2712 21.5178Z" fill="white"/>
</svg>
