<svg width="40" height="40" viewBox="0 0 40 40" fill="none" xmlns="http://www.w3.org/2000/svg">
<path d="M6.66666 29.9997C6.66666 28.2316 7.36904 26.5359 8.61928 25.2856C9.86952 24.0354 11.5652 23.333 13.3333 23.333H26.6667C28.4348 23.333 30.1305 24.0354 31.3807 25.2856C32.6309 26.5359 33.3333 28.2316 33.3333 29.9997C33.3333 30.8837 32.9821 31.7316 32.357 32.3567C31.7319 32.9818 30.884 33.333 30 33.333H9.99999C9.11593 33.333 8.26809 32.9818 7.64297 32.3567C7.01785 31.7316 6.66666 30.8837 6.66666 29.9997Z" stroke="white" stroke-width="2" stroke-linejoin="round"/>
<path d="M20 16.6665C22.7614 16.6665 25 14.4279 25 11.6665C25 8.90508 22.7614 6.6665 20 6.6665C17.2386 6.6665 15 8.90508 15 11.6665C15 14.4279 17.2386 16.6665 20 16.6665Z" stroke="white" stroke-width="2"/>
</svg>
