<svg width="40" height="40" viewBox="0 0 40 40" fill="none" xmlns="http://www.w3.org/2000/svg">
<path fill-rule="evenodd" clip-rule="evenodd" d="M0 30.2564C0 27.141 2.52557 24.6154 5.64103 24.6154C8.75648 24.6154 11.2821 27.141 11.2821 30.2564V34.359C11.2821 37.4744 8.75648 40 5.64103 40C2.52557 40 0 37.4744 0 34.359V30.2564ZM5.64103 27.6923C4.22491 27.6923 3.07692 28.8403 3.07692 30.2564V34.359C3.07692 35.7751 4.22491 36.9231 5.64103 36.9231C7.05714 36.9231 8.20513 35.7751 8.20513 34.359V30.2564C8.20513 28.8403 7.05714 27.6923 5.64103 27.6923Z" fill="white"/>
<path fill-rule="evenodd" clip-rule="evenodd" d="M14.359 17.9487C14.359 14.8333 16.8845 12.3077 20 12.3077C23.1155 12.3077 25.641 14.8333 25.641 17.9487V34.359C25.641 37.4744 23.1155 40 20 40C16.8845 40 14.359 37.4744 14.359 34.359V17.9487ZM20 15.3846C18.5839 15.3846 17.4359 16.5326 17.4359 17.9487V34.359C17.4359 35.7751 18.5839 36.9231 20 36.9231C21.4161 36.9231 22.5641 35.7751 22.5641 34.359V17.9487C22.5641 16.5326 21.4161 15.3846 20 15.3846Z" fill="white"/>
<path fill-rule="evenodd" clip-rule="evenodd" d="M28.718 5.64103C28.718 2.52557 31.2435 0 34.359 0C37.4744 0 40 2.52557 40 5.64103V34.359C40 37.4744 37.4744 40 34.359 40C31.2435 40 28.718 37.4744 28.718 34.359V5.64103ZM34.359 3.07692C32.9429 3.07692 31.7949 4.22491 31.7949 5.64103V34.359C31.7949 35.7751 32.9429 36.9231 34.359 36.9231C35.7751 36.9231 36.9231 35.7751 36.9231 34.359V5.64103C36.9231 4.22491 35.7751 3.07692 34.359 3.07692Z" fill="white"/>
</svg>
