<svg width="725" height="289" viewBox="0 0 725 289" fill="none" xmlns="http://www.w3.org/2000/svg">
<rect x="21.8108" y="244.988" width="678.939" height="0.97" fill="#D9E1E7" fill-opacity="0.4"/>
<path fill-rule="evenodd" clip-rule="evenodd" d="M21.4423 188.968V187.938H700.75V188.968H21.4423ZM21.4423 136.988V135.958H700.75V136.988H21.4423ZM20.75 85.0078V83.9778H700.058V85.0078H20.75ZM20.75 33.0178V31.9878H700.058V33.0178H20.75Z" fill="#D9E1E7" fill-opacity="0.4"/>
<path fill-rule="evenodd" clip-rule="evenodd" d="M440.148 41.8916V30.8611C440.148 27.8151 441.261 25.2152 443.487 23.0613C445.713 20.9075 448.4 19.8306 451.548 19.8306H521.089C524.237 19.8306 526.924 20.9075 529.15 23.0613C531.376 25.2152 532.489 27.8151 532.489 30.8611V234.926C532.489 237.972 531.376 240.572 529.15 242.726C526.924 244.88 524.237 245.957 521.089 245.957H451.548C448.4 245.957 445.713 244.88 443.487 242.726C441.261 240.572 440.148 237.972 440.148 234.926V41.8916Z" fill="white" fill-opacity="0.8"/>
<path opacity="0.14" fill-rule="evenodd" clip-rule="evenodd" d="M451.548 19.8306H521.089C527.385 19.8306 532.489 24.7691 532.489 30.8611V234.926C532.489 241.018 527.385 245.957 521.089 245.957H451.548C445.252 245.957 440.148 241.018 440.148 234.926V30.8611C440.148 24.7691 445.252 19.8306 451.548 19.8306Z" fill="url(#paint0_linear_2_265)"/>
<path fill-rule="evenodd" clip-rule="evenodd" d="M28.0285 262.546C28.4754 258.078 27.1359 190.211 28.0285 189.744C42.2787 182.28 45.4149 169.85 55.3889 163.271C74.9972 150.345 79.2529 147.876 88.4494 147.828C102.168 147.743 106.409 157.314 112.946 165.815C119.483 174.315 126.234 183.095 141.265 188.537C156.033 193.875 165.866 191.4 177.253 188.524C188.015 185.805 200.219 182.721 217.819 186.922C239.694 192.135 253.902 204.467 265.322 214.376C276.125 223.752 282.558 228.926 289.387 226.277C296.888 223.345 305.531 212.518 307.285 190.929C309.433 164.525 315.584 149.385 326.645 143.277C336.607 137.776 350.072 139.45 369.017 148.565C377.469 152.63 384.644 153.266 390.968 150.501C406.969 143.506 414.802 115.612 421.097 93.1984C422.104 89.6157 423.078 86.1543 424.046 82.9014C435.023 46.012 455.452 22.4662 480.084 18.301C496.204 15.5732 521.209 20.1067 548.787 57.1737C577.374 95.5953 594.909 85.5001 611.872 75.7315C623.945 68.7823 636.431 61.5794 650.747 74.2722C665.43 87.2882 670.722 110.147 676.853 136.611C681.601 157.052 689.385 206.902 715.459 228.351C717.241 229.817 715.763 260.181 716.599 262.546" fill="white" fill-opacity="0.01"/>
<path opacity="0.36" fill-rule="evenodd" clip-rule="evenodd" d="M28.0285 262.546C28.4754 258.078 27.1359 190.211 28.0285 189.744C42.2787 182.28 45.4149 169.85 55.3889 163.271C74.9972 150.345 79.2529 147.876 88.4494 147.828C102.168 147.743 106.409 157.314 112.946 165.815C119.483 174.315 126.234 183.095 141.265 188.537C156.033 193.875 165.866 191.4 177.253 188.524C188.015 185.805 200.219 182.721 217.819 186.922C239.694 192.135 253.902 204.467 265.322 214.376C276.125 223.752 282.558 228.926 289.387 226.277C296.888 223.345 305.531 212.518 307.285 190.929C309.433 164.525 315.584 149.385 326.645 143.277C336.607 137.776 350.072 139.45 369.017 148.565C377.469 152.63 384.644 153.266 390.968 150.501C406.969 143.506 414.802 115.612 421.097 93.1984C422.104 89.6157 423.078 86.1543 424.046 82.9014C435.023 46.012 455.452 22.4662 480.084 18.301C496.204 15.5732 521.209 20.1067 548.787 57.1737C577.374 95.5953 594.909 85.5002 611.872 75.7315C623.945 68.7823 636.431 61.5794 650.747 74.2722C665.43 87.2882 670.722 110.147 676.853 136.611C681.601 157.052 689.385 206.902 715.459 228.351C717.241 229.817 715.763 260.181 716.599 262.546" fill="url(#paint1_linear_2_265)"/>
<path fill-rule="evenodd" clip-rule="evenodd" d="M27.7353 189.34C26.7332 189.086 28.6815 185.905 29.5742 185.438C43.8244 177.974 44.7957 167.263 54.7685 160.685C74.3769 147.759 76.0037 149.434 87.4802 147.184C100.922 144.531 106.98 157.273 113.518 165.772C120.056 174.271 126.806 183.053 141.837 188.495C156.605 193.833 166.438 191.357 177.825 188.482C188.587 185.763 200.791 182.679 218.391 186.879C240.267 192.092 254.474 204.424 265.894 214.334C276.697 223.71 283.13 228.883 289.959 226.235C297.46 223.303 306.104 212.475 307.857 190.886C310.005 164.483 316.156 149.342 327.217 143.234C337.179 137.734 350.644 139.408 369.589 148.523C378.041 152.587 385.216 153.224 391.54 150.458C407.541 143.464 415.374 115.57 421.67 93.1559C422.676 89.5732 423.65 86.1118 424.618 82.8589C435.595 45.9695 456.024 22.4237 480.656 18.2586C496.776 15.5307 521.781 20.0642 549.359 57.1313C577.947 95.5528 595.481 85.4577 612.445 75.689C624.517 68.7398 637.003 61.5369 651.319 74.2297C666.003 87.2457 671.295 110.104 677.426 136.569C684.722 168.091 692.997 203.822 719.784 229.316C720.851 230.331 720.871 231.989 719.828 233.027C719.33 233.525 718.646 233.809 717.93 233.817C717.213 233.825 716.523 233.556 716.013 233.069C688.082 206.486 679.625 169.953 672.157 137.72C666.229 112.123 661.111 90.0144 647.685 78.1102C636.326 68.0393 626.999 73.4035 615.194 80.206C597.938 90.1445 576.46 102.502 544.989 60.2032C524.448 32.6026 502.517 19.8965 481.582 23.4274C459.389 27.1778 440.03 49.9437 429.8 84.316C428.839 87.5413 427.876 90.9795 426.876 94.538C420.283 118.014 412.077 147.233 393.754 155.241C385.984 158.64 377.05 157.959 367.199 153.222C350.236 145.073 338.031 143.294 329.882 147.796C320.52 152.962 315.229 166.787 313.238 191.293C310.784 221.477 296.336 229.391 291.967 231.098C281.716 235.103 273.148 227.663 262.297 218.247C251.326 208.724 237.673 196.873 217.103 191.973C200.832 188.091 189.823 190.87 179.179 193.557C167.423 196.529 156.32 199.33 139.952 193.41C123.431 187.434 115.865 177.595 109.192 168.922C102.992 160.861 97.8417 151.307 87.8734 152.202C79.7998 152.923 76.9292 152.413 57.7906 165.036C48.0902 171.434 45.622 181.908 32.106 189.345C29.4099 190.829 28.4887 190.092 27.726 189.345" fill="#A57865"/>
<path fill-rule="evenodd" clip-rule="evenodd" d="M485.935 29.6699C481.164 29.6678 477.06 26.2965 476.131 21.6176C475.202 16.9386 477.708 12.2551 482.115 10.4309C486.523 8.6068 491.605 10.1501 494.255 14.1171C496.904 18.084 496.382 23.3699 493.008 26.7424C491.136 28.6233 488.589 29.6773 485.935 29.6699V29.6699ZM485.935 13.0146C482.257 13.0192 479.279 16.0033 479.282 19.6809C479.285 23.3585 482.268 26.3377 485.946 26.3362C489.623 26.3347 492.604 23.353 492.604 19.6754C492.598 15.9958 489.614 13.0156 485.935 13.0138L485.935 13.0146Z" fill="#A57865"/>
<ellipse cx="485.935" cy="19.6745" rx="6.66904" ry="6.66078" fill="white"/>
<path d="M8.58551 250.19C6.38434 250.19 5.12653 248.344 5.12653 245.104C5.12653 241.891 6.41168 240.018 8.58551 240.018C10.7593 240.018 12.0445 241.891 12.0445 245.104C12.0445 248.344 10.773 250.19 8.58551 250.19ZM8.58551 249.096C10.0074 249.096 10.8414 247.661 10.8414 245.104C10.8414 242.547 10.0074 241.084 8.58551 241.084C7.16364 241.084 6.31598 242.547 6.31598 245.104C6.31598 247.661 7.14996 249.096 8.58551 249.096Z" fill="#99B2C6"/>
<path d="M4.5199 129.958C2.72888 129.958 1.37537 128.85 1.30701 127.333H2.49646C2.59216 128.221 3.45349 128.877 4.5199 128.877C5.80505 128.877 6.73474 127.934 6.73474 126.69C6.73474 125.405 5.76404 124.461 4.43787 124.448C3.60388 124.434 2.9613 124.694 2.59216 125.336H1.40271L2.09998 119.922H7.45935V121.016H3.12537L2.75623 123.915H2.85193C3.28943 123.573 3.95935 123.34 4.65662 123.34C6.54333 123.34 7.93787 124.735 7.93787 126.663C7.93787 128.577 6.48865 129.958 4.5199 129.958Z" fill="#99B2C6"/>
<path d="M5.80634 4.10156V14H4.56219V5.38672H4.50751L2.10126 6.98633V5.74219L4.56219 4.10156H5.80634ZM11.6852 14.1367C9.48407 14.1367 8.22626 12.291 8.22626 9.05078C8.22626 5.83789 9.51141 3.96484 11.6852 3.96484C13.8591 3.96484 15.1442 5.83789 15.1442 9.05078C15.1442 12.291 13.8727 14.1367 11.6852 14.1367ZM11.6852 13.043C13.1071 13.043 13.9411 11.6074 13.9411 9.05078C13.9411 6.49414 13.1071 5.03125 11.6852 5.03125C10.2634 5.03125 9.41571 6.49414 9.41571 9.05078C9.41571 11.6074 10.2497 13.043 11.6852 13.043Z" fill="#99B2C6"/>
<path d="M32.144 272.144V282.042H30.8998V273.429H30.8452L28.4389 275.028V273.784L30.8998 272.144H32.144ZM44.3666 271.009V278.173H43.2866V277.503H40.8256V276.792H43.2866V271.009H44.3666ZM34.3041 275.589C36.6557 275.603 39.6635 275.575 42.2885 275.288L42.3569 275.985C41.1674 276.156 39.9301 276.259 38.7202 276.313V278.214H37.6674V276.354C36.519 276.396 35.4184 276.402 34.4272 276.396L34.3041 275.589ZM44.3666 278.61V281.126H37.2709V282.22H44.7631V283.013H36.2182V280.374H43.3002V279.39H36.1635V278.61H44.3666ZM38.269 271.241C40.0737 271.241 41.2768 271.952 41.2905 273.073C41.2768 274.208 40.0737 274.892 38.269 274.892C36.437 274.892 35.2475 274.208 35.2475 273.073C35.2475 271.952 36.437 271.241 38.269 271.241ZM38.269 271.993C37.0385 271.993 36.2455 272.417 36.2592 273.073C36.2455 273.716 37.0385 274.153 38.269 274.153C39.4858 274.153 40.2787 273.716 40.2787 273.073C40.2787 272.417 39.4858 271.993 38.269 271.993ZM50.3959 282.042L50.3823 281.14L53.7592 277.585C54.935 276.341 55.4955 275.671 55.4955 274.755C55.4955 273.743 54.6342 273.073 53.5268 273.073C52.351 273.073 51.5991 273.825 51.5991 274.933H50.437C50.4233 273.183 51.7768 272.007 53.5678 272.007C55.3588 272.007 56.644 273.21 56.644 274.755C56.644 275.862 56.1245 276.724 54.3745 278.528L52.1049 280.866V280.948H56.8217V282.042H50.3959ZM58.9272 282.042L63.4662 273.306V273.237H58.2299V272.144H64.7377V273.292L60.2123 282.042H58.9272ZM69.3452 271.446C71.1635 271.46 72.4897 272.554 72.4897 274.14C72.4897 275.726 71.1635 276.819 69.3452 276.819C67.4995 276.819 66.187 275.726 66.187 274.14C66.187 272.554 67.4995 271.46 69.3452 271.446ZM69.3452 272.349C68.1284 272.349 67.226 273.087 67.2397 274.14C67.226 275.206 68.1284 275.944 69.3452 275.944C70.5483 275.944 71.4506 275.206 71.4506 274.14C71.4506 273.087 70.5483 272.349 69.3452 272.349ZM75.935 270.995V277.243H74.8686V270.995H75.935ZM75.935 277.831V280.757H69.1127V282.124H76.3725V282.985H68.06V279.95H74.8686V278.692H68.0327V277.831H75.935Z" fill="#99B2C6"/>
<path d="M141.547 272.144V282.042H140.302V273.429H140.248L137.841 275.028V273.784L140.302 272.144H141.547ZM153.769 271.009V278.173H152.689V277.503H150.228V276.792H152.689V271.009H153.769ZM143.707 275.589C146.058 275.603 149.066 275.575 151.691 275.288L151.759 275.985C150.57 276.156 149.333 276.259 148.123 276.313V278.214H147.07V276.354C145.922 276.396 144.821 276.402 143.83 276.396L143.707 275.589ZM153.769 278.61V281.126H146.674V282.22H154.166V283.013H145.621V280.374H152.703V279.39H145.566V278.61H153.769ZM147.672 271.241C149.476 271.241 150.679 271.952 150.693 273.073C150.679 274.208 149.476 274.892 147.672 274.892C145.84 274.892 144.65 274.208 144.65 273.073C144.65 271.952 145.84 271.241 147.672 271.241ZM147.672 271.993C146.441 271.993 145.648 272.417 145.662 273.073C145.648 273.716 146.441 274.153 147.672 274.153C148.888 274.153 149.681 273.716 149.681 273.073C149.681 272.417 148.888 271.993 147.672 271.993ZM159.799 282.042L159.785 281.14L163.162 277.585C164.338 276.341 164.898 275.671 164.898 274.755C164.898 273.743 164.037 273.073 162.929 273.073C161.754 273.073 161.002 273.825 161.002 274.933H159.84C159.826 273.183 161.179 272.007 162.97 272.007C164.761 272.007 166.047 273.21 166.047 274.755C166.047 275.862 165.527 276.724 163.777 278.528L161.508 280.866V280.948H166.224V282.042H159.799ZM171.324 282.179C169.246 282.179 167.797 281.03 167.81 279.417C167.797 278.132 168.685 277.079 169.82 276.901V276.847C168.836 276.614 168.193 275.712 168.193 274.632C168.193 273.114 169.519 272.007 171.324 272.007C173.129 272.007 174.455 273.114 174.468 274.632C174.455 275.712 173.799 276.614 172.828 276.847V276.901C173.949 277.079 174.838 278.132 174.851 279.417C174.838 281.03 173.388 282.179 171.324 282.179ZM171.324 281.099C172.746 281.099 173.621 280.388 173.621 279.349C173.621 278.255 172.65 277.448 171.324 277.448C169.998 277.448 169.013 278.255 169.041 279.349C169.013 280.388 169.902 281.099 171.324 281.099ZM171.324 276.409C172.445 276.409 173.265 275.726 173.265 274.728C173.265 273.743 172.486 273.073 171.324 273.073C170.148 273.073 169.383 273.743 169.383 274.728C169.383 275.726 170.189 276.409 171.324 276.409ZM179.513 271.446C181.332 271.46 182.658 272.554 182.658 274.14C182.658 275.726 181.332 276.819 179.513 276.819C177.668 276.819 176.355 275.726 176.355 274.14C176.355 272.554 177.668 271.46 179.513 271.446ZM179.513 272.349C178.297 272.349 177.394 273.087 177.408 274.14C177.394 275.206 178.297 275.944 179.513 275.944C180.716 275.944 181.619 275.206 181.619 274.14C181.619 273.087 180.716 272.349 179.513 272.349ZM186.103 270.995V277.243H185.037V270.995H186.103ZM186.103 277.831V280.757H179.281V282.124H186.541V282.985H178.228V279.95H185.037V278.692H178.201V277.831H186.103Z" fill="#99B2C6"/>
<path d="M251.962 272.144V282.042H250.718V273.429H250.663L248.257 275.028V273.784L250.718 272.144H251.962ZM264.185 271.009V278.173H263.105V277.503H260.644V276.792H263.105V271.009H264.185ZM254.122 275.589C256.474 275.603 259.482 275.575 262.107 275.288L262.175 275.985C260.986 276.156 259.748 276.259 258.538 276.313V278.214H257.486V276.354C256.337 276.396 255.237 276.402 254.245 276.396L254.122 275.589ZM264.185 278.61V281.126H257.089V282.22H264.581V283.013H256.036V280.374H263.118V279.39H255.982V278.61H264.185ZM258.087 271.241C259.892 271.241 261.095 271.952 261.109 273.073C261.095 274.208 259.892 274.892 258.087 274.892C256.255 274.892 255.066 274.208 255.066 273.073C255.066 271.952 256.255 271.241 258.087 271.241ZM258.087 271.993C256.857 271.993 256.064 272.417 256.077 273.073C256.064 273.716 256.857 274.153 258.087 274.153C259.304 274.153 260.097 273.716 260.097 273.073C260.097 272.417 259.304 271.993 258.087 271.993ZM270.214 282.042L270.2 281.14L273.577 277.585C274.753 276.341 275.314 275.671 275.314 274.755C275.314 273.743 274.452 273.073 273.345 273.073C272.169 273.073 271.417 273.825 271.417 274.933H270.255C270.241 273.183 271.595 272.007 273.386 272.007C275.177 272.007 276.462 273.21 276.462 274.755C276.462 275.862 275.943 276.724 274.193 278.528L271.923 280.866V280.948H276.64V282.042H270.214ZM281.726 272.007C283.435 272.021 285.322 273.046 285.322 276.696C285.322 280.21 283.886 282.179 281.562 282.179C279.825 282.179 278.595 281.112 278.349 279.54H279.566C279.784 280.429 280.454 281.085 281.562 281.085C283.175 281.085 284.159 279.69 284.173 277.284H284.036C283.462 278.104 282.56 278.597 281.507 278.597C279.73 278.597 278.267 277.243 278.267 275.329C278.267 273.483 279.62 271.993 281.726 272.007ZM281.726 273.087C280.427 273.087 279.456 274.099 279.47 275.315C279.47 276.546 280.386 277.517 281.685 277.517C282.97 277.517 283.982 276.45 283.982 275.288C283.982 274.153 283.038 273.087 281.726 273.087ZM290.025 271.446C291.843 271.46 293.169 272.554 293.169 274.14C293.169 275.726 291.843 276.819 290.025 276.819C288.179 276.819 286.866 275.726 286.866 274.14C286.866 272.554 288.179 271.46 290.025 271.446ZM290.025 272.349C288.808 272.349 287.906 273.087 287.919 274.14C287.906 275.206 288.808 275.944 290.025 275.944C291.228 275.944 292.13 275.206 292.13 274.14C292.13 273.087 291.228 272.349 290.025 272.349ZM296.615 270.995V277.243H295.548V270.995H296.615ZM296.615 277.831V280.757H289.792V282.124H297.052V282.985H288.74V279.95H295.548V278.692H288.712V277.831H296.615Z" fill="#99B2C6"/>
<path d="M362.378 272.144V282.042H361.134V273.429H361.079L358.673 275.028V273.784L361.134 272.144H362.378ZM374.6 271.009V278.173H373.52V277.503H371.059V276.792H373.52V271.009H374.6ZM364.538 275.589C366.889 275.603 369.897 275.575 372.522 275.288L372.591 275.985C371.401 276.156 370.164 276.259 368.954 276.313V278.214H367.901V276.354C366.753 276.396 365.652 276.402 364.661 276.396L364.538 275.589ZM374.6 278.61V281.126H367.505V282.22H374.997V283.013H366.452V280.374H373.534V279.39H366.397V278.61H374.6ZM368.503 271.241C370.307 271.241 371.511 271.952 371.524 273.073C371.511 274.208 370.307 274.892 368.503 274.892C366.671 274.892 365.481 274.208 365.481 273.073C365.481 271.952 366.671 271.241 368.503 271.241ZM368.503 271.993C367.272 271.993 366.479 272.417 366.493 273.073C366.479 273.716 367.272 274.153 368.503 274.153C369.72 274.153 370.513 273.716 370.513 273.073C370.513 272.417 369.72 271.993 368.503 271.993ZM384.048 282.179C382.079 282.179 380.671 281.126 380.602 279.554H381.846C381.915 280.497 382.858 281.085 384.034 281.085C385.333 281.085 386.29 280.374 386.29 279.349C386.29 278.269 385.429 277.503 383.884 277.503H383.077V276.423H383.884C385.087 276.423 385.921 275.753 385.921 274.728C385.921 273.743 385.196 273.073 384.075 273.073C383.022 273.073 382.052 273.661 381.997 274.632H380.807C380.876 273.06 382.325 272.007 384.089 272.007C385.975 272.007 387.124 273.237 387.11 274.659C387.124 275.78 386.468 276.614 385.429 276.901V276.97C386.714 277.175 387.507 278.091 387.493 279.349C387.507 280.976 386.016 282.179 384.048 282.179ZM392.511 282.179C390.309 282.179 389.052 280.333 389.052 277.093C389.052 273.88 390.337 272.007 392.511 272.007C394.684 272.007 395.97 273.88 395.97 277.093C395.97 280.333 394.698 282.179 392.511 282.179ZM392.511 281.085C393.932 281.085 394.766 279.649 394.766 277.093C394.766 274.536 393.932 273.073 392.511 273.073C391.089 273.073 390.241 274.536 390.241 277.093C390.241 279.649 391.075 281.085 392.511 281.085ZM400.618 271.446C402.436 271.46 403.763 272.554 403.763 274.14C403.763 275.726 402.436 276.819 400.618 276.819C398.772 276.819 397.46 275.726 397.46 274.14C397.46 272.554 398.772 271.46 400.618 271.446ZM400.618 272.349C399.401 272.349 398.499 273.087 398.513 274.14C398.499 275.206 399.401 275.944 400.618 275.944C401.821 275.944 402.723 275.206 402.723 274.14C402.723 273.087 401.821 272.349 400.618 272.349ZM407.208 270.995V277.243H406.141V270.995H407.208ZM407.208 277.831V280.757H400.386V282.124H407.645V282.985H399.333V279.95H406.141V278.692H399.305V277.831H407.208Z" fill="#99B2C6"/>
<path d="M472.793 272.144V282.042H471.549V273.429H471.495L469.088 275.028V273.784L471.549 272.144H472.793ZM485.016 271.009V278.173H483.936V277.503H481.475V276.792H483.936V271.009H485.016ZM474.953 275.589C477.305 275.603 480.313 275.575 482.938 275.288L483.006 275.985C481.817 276.156 480.579 276.259 479.37 276.313V278.214H478.317V276.354C477.168 276.396 476.068 276.402 475.077 276.396L474.953 275.589ZM485.016 278.61V281.126H477.92V282.22H485.412V283.013H476.868V280.374H483.95V279.39H476.813V278.61H485.016ZM478.918 271.241C480.723 271.241 481.926 271.952 481.94 273.073C481.926 274.208 480.723 274.892 478.918 274.892C477.086 274.892 475.897 274.208 475.897 273.073C475.897 271.952 477.086 271.241 478.918 271.241ZM478.918 271.993C477.688 271.993 476.895 272.417 476.909 273.073C476.895 273.716 477.688 274.153 478.918 274.153C480.135 274.153 480.928 273.716 480.928 273.073C480.928 272.417 480.135 271.993 478.918 271.993ZM494.463 282.179C492.495 282.179 491.086 281.126 491.018 279.554H492.262C492.33 280.497 493.274 281.085 494.45 281.085C495.748 281.085 496.705 280.374 496.705 279.349C496.705 278.269 495.844 277.503 494.299 277.503H493.493V276.423H494.299C495.502 276.423 496.336 275.753 496.336 274.728C496.336 273.743 495.612 273.073 494.491 273.073C493.438 273.073 492.467 273.661 492.412 274.632H491.223C491.291 273.06 492.741 272.007 494.504 272.007C496.391 272.007 497.539 273.237 497.526 274.659C497.539 275.78 496.883 276.614 495.844 276.901V276.97C497.129 277.175 497.922 278.091 497.909 279.349C497.922 280.976 496.432 282.179 494.463 282.179ZM503.186 272.144V282.042H501.942V273.429H501.887L499.481 275.028V273.784L501.942 272.144H503.186ZM508.832 271.446C510.651 271.46 511.977 272.554 511.977 274.14C511.977 275.726 510.651 276.819 508.832 276.819C506.987 276.819 505.674 275.726 505.674 274.14C505.674 272.554 506.987 271.46 508.832 271.446ZM508.832 272.349C507.616 272.349 506.713 273.087 506.727 274.14C506.713 275.206 507.616 275.944 508.832 275.944C510.036 275.944 510.938 275.206 510.938 274.14C510.938 273.087 510.036 272.349 508.832 272.349ZM515.422 270.995V277.243H514.356V270.995H515.422ZM515.422 277.831V280.757H508.6V282.124H515.86V282.985H507.547V279.95H514.356V278.692H507.52V277.831H515.422Z" fill="#99B2C6"/>
<path d="M577.683 282.042L577.669 281.14L581.046 277.585C582.222 276.341 582.783 275.671 582.783 274.755C582.783 273.743 581.921 273.073 580.814 273.073C579.638 273.073 578.886 273.825 578.886 274.933H577.724C577.71 273.183 579.064 272.007 580.855 272.007C582.646 272.007 583.931 273.21 583.931 274.755C583.931 275.862 583.411 276.724 581.661 278.528L579.392 280.866V280.948H584.109V282.042H577.683ZM595.484 271.009V278.173H594.404V277.503H591.943V276.792H594.404V271.009H595.484ZM585.421 275.589C587.773 275.603 590.781 275.575 593.406 275.288L593.474 275.985C592.284 276.156 591.047 276.259 589.837 276.313V278.214H588.784V276.354C587.636 276.396 586.535 276.402 585.544 276.396L585.421 275.589ZM595.484 278.61V281.126H588.388V282.22H595.88V283.013H587.335V280.374H594.417V279.39H587.281V278.61H595.484ZM589.386 271.241C591.191 271.241 592.394 271.952 592.408 273.073C592.394 274.208 591.191 274.892 589.386 274.892C587.554 274.892 586.365 274.208 586.365 273.073C586.365 271.952 587.554 271.241 589.386 271.241ZM589.386 271.993C588.156 271.993 587.363 272.417 587.376 273.073C587.363 273.716 588.156 274.153 589.386 274.153C590.603 274.153 591.396 273.716 591.396 273.073C591.396 272.417 590.603 271.993 589.386 271.993ZM605.013 272.144V282.042H603.769V273.429H603.714L601.308 275.028V273.784L603.769 272.144H605.013ZM610.659 271.446C612.478 271.46 613.804 272.554 613.804 274.14C613.804 275.726 612.478 276.819 610.659 276.819C608.814 276.819 607.501 275.726 607.501 274.14C607.501 272.554 608.814 271.46 610.659 271.446ZM610.659 272.349C609.443 272.349 608.54 273.087 608.554 274.14C608.54 275.206 609.443 275.944 610.659 275.944C611.863 275.944 612.765 275.206 612.765 274.14C612.765 273.087 611.863 272.349 610.659 272.349ZM617.249 270.995V277.243H616.183V270.995H617.249ZM617.249 277.831V280.757H610.427V282.124H617.687V282.985H609.374V279.95H616.183V278.692H609.347V277.831H617.249Z" fill="#99B2C6"/>
<path d="M679.995 280.939L679.981 280.037L683.358 276.482C684.534 275.238 685.094 274.568 685.094 273.652C685.094 272.64 684.233 271.97 683.125 271.97C681.95 271.97 681.198 272.722 681.198 273.83H680.036C680.022 272.08 681.375 270.904 683.167 270.904C684.958 270.904 686.243 272.107 686.243 273.652C686.243 274.759 685.723 275.621 683.973 277.425L681.704 279.763V279.845H686.42V280.939H679.995ZM697.795 269.906V277.07H696.715V276.4H694.254V275.689H696.715V269.906H697.795ZM687.733 274.486C690.084 274.5 693.092 274.472 695.717 274.185L695.786 274.882C694.596 275.053 693.359 275.156 692.149 275.21V277.111H691.096V275.251C689.948 275.292 688.847 275.299 687.856 275.292L687.733 274.486ZM697.795 277.507V280.023H690.7V281.117H698.192V281.91H689.647V279.271H696.729V278.287H689.592V277.507H697.795ZM691.698 270.138C693.502 270.138 694.706 270.849 694.719 271.97C694.706 273.105 693.502 273.789 691.698 273.789C689.866 273.789 688.676 273.105 688.676 271.97C688.676 270.849 689.866 270.138 691.698 270.138ZM691.698 270.89C690.467 270.89 689.674 271.314 689.688 271.97C689.674 272.613 690.467 273.05 691.698 273.05C692.915 273.05 693.708 272.613 693.708 271.97C693.708 271.314 692.915 270.89 691.698 270.89ZM703.825 280.939L703.811 280.037L707.188 276.482C708.364 275.238 708.924 274.568 708.924 273.652C708.924 272.64 708.063 271.97 706.956 271.97C705.78 271.97 705.028 272.722 705.028 273.83H703.866C703.852 272.08 705.206 270.904 706.997 270.904C708.788 270.904 710.073 272.107 710.073 273.652C710.073 274.759 709.553 275.621 707.803 277.425L705.534 279.763V279.845H710.25V280.939H703.825ZM715.049 270.343C716.868 270.357 718.194 271.451 718.194 273.037C718.194 274.623 716.868 275.716 715.049 275.716C713.204 275.716 711.891 274.623 711.891 273.037C711.891 271.451 713.204 270.357 715.049 270.343ZM715.049 271.246C713.833 271.246 712.93 271.984 712.944 273.037C712.93 274.103 713.833 274.841 715.049 274.841C716.252 274.841 717.155 274.103 717.155 273.037C717.155 271.984 716.252 271.246 715.049 271.246ZM721.639 269.892V276.14H720.573V269.892H721.639ZM721.639 276.728V279.654H714.817V281.021H722.077V281.882H713.764V278.847H720.573V277.589H713.737V276.728H721.639Z" fill="#99B2C6"/>
<defs>
<linearGradient id="paint0_linear_2_265" x1="440.148" y1="19.8306" x2="440.148" y2="245.957" gradientUnits="userSpaceOnUse">
<stop stop-color="#9DB5C9" stop-opacity="0.01"/>
<stop offset="1" stop-color="#9DB5C9"/>
</linearGradient>
<linearGradient id="paint1_linear_2_265" x1="27.7143" y1="17.6489" x2="27.7143" y2="262.546" gradientUnits="userSpaceOnUse">
<stop stop-color="#A57865"/>
<stop offset="1" stop-color="#A57865" stop-opacity="0"/>
</linearGradient>
</defs>
</svg>
